<svg t="1728828112724" class="icon" viewBox="0 0 1024 1024" version="1.1" xmlns="http://www.w3.org/2000/svg" p-id="11456" width="200" height="200"><path d="M512 0C229.69 0 0 229.69 0 512s229.69 512 512 512 512-229.69 512-512S794.31 0 512 0z m0 951.73C269.53 951.73 72.27 754.47 72.27 512S269.53 72.27 512 72.27 951.73 269.53 951.73 512 754.47 951.73 512 951.73z"   p-id="11457"></path><path d="M195.86 416.56c-0.48 1.17-0.76 2.39-1.12 3.6-0.31 1.05-0.72 2.06-0.93 3.14a36.23 36.23 0 0 0 0 14.15c0.22 1.09 0.62 2.1 0.93 3.15 0.36 1.2 0.63 2.42 1.11 3.59 0.52 1.26 1.24 2.41 1.89 3.6 0.48 0.87 0.86 1.78 1.42 2.61 2.65 3.97 6.06 7.38 10.03 10.03 0.85 0.57 1.77 0.95 2.66 1.44 1.17 0.65 2.31 1.36 3.56 1.87 1.17 0.48 2.4 0.76 3.6 1.12 1.05 0.31 2.05 0.72 3.14 0.93 2.33 0.46 4.7 0.71 7.07 0.71h565.53c19.96 0 36.14-16.18 36.14-36.14s-16.18-36.14-36.14-36.14h-478.3l39.93-39.93c14.12-14.11 14.12-36.99 0-51.1-14.1-14.12-37-14.12-51.1 0L203.72 404.78c-1.7 1.69-3.21 3.56-4.55 5.56-0.56 0.84-0.94 1.75-1.42 2.62-0.66 1.19-1.37 2.33-1.89 3.6zM826.38 610.79c0.6-1.1 1.27-2.16 1.75-3.33 0.51-1.23 0.8-2.51 1.17-3.77 0.29-1 0.68-1.94 0.88-2.97 0.93-4.67 0.93-9.49 0-14.16-0.21-1.06-0.61-2.05-0.91-3.08-0.36-1.23-0.64-2.47-1.14-3.67-0.5-1.21-1.19-2.31-1.82-3.46-0.5-0.92-0.91-1.88-1.5-2.76a36.09 36.09 0 0 0-4.5-5.51c-0.02-0.02-0.05-0.04-0.07-0.06a36.504 36.504 0 0 0-5.45-4.45c-0.85-0.57-1.77-0.95-2.65-1.44-1.18-0.65-2.32-1.36-3.58-1.88-1.13-0.47-2.31-0.73-3.47-1.08-1.09-0.33-2.14-0.74-3.27-0.97-2.19-0.43-4.41-0.64-6.64-0.67-0.14 0-0.28-0.04-0.42-0.04H229.23c-19.96 0-36.14 16.18-36.14 36.14s16.18 36.14 36.14 36.14h478.3L667.6 669.7c-14.11 14.11-14.11 36.99 0.01 51.1 7.06 7.05 16.3 10.58 25.55 10.58s18.5-3.53 25.56-10.59l101.61-101.62c0.02-0.02 0.04-0.05 0.06-0.07 1.65-1.66 3.13-3.48 4.43-5.43 0.61-0.92 1.04-1.92 1.56-2.88z"   p-id="11458"></path></svg>
