<svg width="200.000000" height="200.000000" viewBox="0 0 200 200" fill="none" xmlns="http://www.w3.org/2000/svg" xmlns:xlink="http://www.w3.org/1999/xlink">
  <desc>
    Created with Pixso.
  </desc>
  <defs>
    <clipPath id="clip3_1">
      <rect id="画板 1" width="200.000000" height="200.000000" fill="white" fill-opacity="0"/>
    </clipPath>
  </defs>
  <rect id="画板 1" width="200.000000" height="200.000000" fill="#FFFFFF" fill-opacity="0"/>
  <g clip-path="url(#clip3_1)">
    <path id="矢量 1" d="M0 100C0 44.77 44.77 0 100 0C155.22 0 200 44.77 200 100C200 155.22 155.22 200 100 200C44.77 200 0 155.22 0 100Z" fill="#FFFAFA" fill-opacity="0" fill-rule="evenodd"/>
    <path id="矢量 1" d="M100 0C44.77 0 0 44.77 0 100C0 155.22 44.77 200 100 200C155.22 200 200 155.22 200 100C200 44.77 155.22 0 100 0ZM78.61 5.35C85.56 3.78 92.69 3 100 3C107.3 3 114.43 3.78 121.39 5.35C126.95 6.6 132.41 8.36 137.75 10.62C143.18 12.91 148.33 15.66 153.18 18.84C158.69 22.46 163.82 26.65 168.58 31.41C173.35 36.17 177.53 41.3 181.15 46.81C184.33 51.66 187.08 56.81 189.37 62.24C191.63 67.58 193.39 73.04 194.65 78.61C196.21 85.56 197 92.69 197 100C197 107.3 196.21 114.43 194.65 121.39C193.39 126.95 191.63 132.41 189.37 137.75C187.08 143.18 184.34 148.33 181.15 153.18C177.53 158.69 173.35 163.82 168.58 168.58C163.82 173.35 158.69 177.53 153.18 181.15C148.33 184.34 143.18 187.08 137.75 189.37C132.41 191.63 126.95 193.39 121.39 194.65C114.43 196.21 107.3 197 100 197C92.69 197 85.56 196.21 78.61 194.65C73.04 193.39 67.58 191.63 62.24 189.37C56.81 187.08 51.66 184.33 46.81 181.15C41.3 177.53 36.17 173.34 31.41 168.58C26.65 163.82 22.46 158.69 18.84 153.18C15.66 148.33 12.91 143.18 10.62 137.75C8.36 132.41 6.6 126.95 5.35 121.39C3.78 114.43 3 107.3 3 100C3 92.69 3.78 85.56 5.35 78.61C6.6 73.04 8.36 67.58 10.62 62.24C12.91 56.81 15.66 51.66 18.84 46.81C22.46 41.3 26.65 36.17 31.41 31.41C36.17 26.65 41.3 22.46 46.81 18.84C51.66 15.66 56.81 12.91 62.24 10.62C67.58 8.36 73.04 6.6 78.61 5.35Z" fill="#F90A0A" fill-opacity="1.000000" fill-rule="evenodd"/>
    <path id="折扣" d="M33.22 98.96C37.35 97.68 41.59 96.34 45.81 95L46.45 99.05C42.03 100.59 37.53 101.93 33.22 103.38L33.22 131.17C33.22 134.23 32.32 135.41 30.43 136.12C28.45 136.93 25.2 136.93 19.44 136.93C19.18 135.85 18.54 134.05 17.91 132.89C21.52 133.03 24.7 133 26.33 132.98C26.69 132.98 26.98 132.97 27.18 132.97C28.45 132.89 28.89 132.53 28.89 131.26L28.89 104.8C24.12 106.34 19.62 107.77 15.75 109.04L14.13 104.8C18.1 103.64 23.22 102.01 28.89 100.3L28.89 79.07L15.31 79.07L15.31 74.92L28.89 74.92L28.89 56.02L33.22 56.02L33.22 74.92L45.9 74.92L45.9 79.07L33.22 79.07L33.22 98.96ZM122.76 99.95L134.65 96.26L135.28 100.3C131.13 101.75 126.91 103 122.76 104.36L122.76 131.72C122.76 134.77 121.86 136.03 119.97 136.84C117.99 137.48 114.76 137.65 108.92 137.57C108.72 136.49 108.02 134.69 107.38 133.52C111.79 133.61 115.66 133.61 116.74 133.52C117.9 133.52 118.45 133.15 118.45 131.81L118.45 105.79C113.49 107.33 108.81 108.85 104.85 110.21L103.42 105.88C107.47 104.72 112.7 103.09 118.45 101.38L118.45 77.45L104.5 77.45L104.5 73.29L118.45 73.29L118.45 56.11L122.76 56.11L122.76 73.29L134.82 73.29L134.82 77.45L122.76 77.45L122.76 99.95ZM55.43 85.91L95.75 85.91L95.75 90.04L79.38 90.04L79.38 136.93L75.14 136.93L75.14 90.04L55.43 90.04L55.43 93C55.43 109.31 54.01 124.16 44.38 137.13C43.57 136.22 42.12 135.04 40.95 134.34C50.05 122.27 51.22 107.59 51.22 93L51.22 63.85C64.44 62.33 80.73 59.72 89.56 56.93L92.26 60.53C82.99 63.41 68.22 65.74 55.43 67.1L55.43 85.91ZM139.96 134.95L139.96 63.76L179.18 63.76L179.18 134.23L174.88 134.23L174.88 126.05L144.18 126.05L144.18 134.95L139.96 134.95ZM144.18 67.91L144.18 121.81L174.88 121.81L174.88 67.91L144.18 67.91Z" fill="#FE0303" fill-opacity="1.000000" fill-rule="evenodd"/>
    <line id="直线 1" x1="31.000000" y1="29.000000" x2="169.000000" y2="167.000000" stroke="#FA0505" stroke-opacity="1.000000" stroke-width="6.000000"/>
  </g>
</svg>
