<svg t="1725967530449" class="icon" viewBox="0 0 1024 1024" version="1.1" xmlns="http://www.w3.org/2000/svg" p-id="2651"
     width="200" height="200">
  <path
    d="M522.62912 184.4224c152.576 0 276.25472 123.6992 276.25472 276.2752 0 106.57792-60.39552 199.0656-148.80768 245.1456 0.16384 1.9456 0.26624 3.93216 0.34816 5.9392l0.08192 4.66944a127.8976 127.8976 0 0 1-123.20768 127.7952l-4.66944 0.1024a127.8976 127.8976 0 0 1-127.46752-138.52672 276.1728 276.1728 0 0 1-148.80768-245.1456c0-152.576 123.6992-276.25472 276.2752-276.25472z m85.11488 539.17696a276.91008 276.91008 0 0 1-85.11488 13.33248 276.0704 276.0704 0 0 1-85.11488-13.35296 85.4016 85.4016 0 0 0 170.22976 0z m-85.11488-498.21696c-129.96608 0-235.3152 105.34912-235.3152 235.3152 0 129.92512 105.34912 235.27424 235.3152 235.27424 129.9456 0 235.29472-105.34912 235.29472-235.29472 0-129.9456-105.34912-235.29472-235.3152-235.29472z"
    fill="#bfbfbf" p-id="2652"></path>
</svg>
