<svg   class="icon" viewBox="0 0 1148 1024" version="1.1" xmlns="http://www.w3.org/2000/svg"
      width="200" height="200">
  <path
    d="M450.332444 448.227556a226.588444 226.588444 0 1 1 237.056 0c136.931556 56.206222 234.211556 207.075556 234.211556 383.317333v154.510222h-705.422222v-154.510222c0-176.184889 97.223111-327.111111 234.154666-383.317333z m594.488889 231.879111c0-123.847111-88.007111-230.4-210.033777-257.308445a28.444444 28.444444 0 0 1-4.152889-54.272 147.000889 147.000889 0 0 0 94.947555-136.533333c0-77.994667-62.464-142.449778-142.051555-146.716445a28.444444 28.444444 0 0 1 3.015111-56.775111c109.511111 5.859556 195.925333 95.004444 195.925333 203.434667 0 61.44-27.932444 117.76-73.386667 155.591111 114.744889 50.631111 192.625778 163.783111 192.625778 292.579556v97.393777a28.444444 28.444444 0 0 1-28.444444 28.444445h-76.231111a28.444444 28.444444 0 0 1 0-56.888889h47.786666v-68.949333z m-987.932444 0v68.949333h47.786667a28.444444 28.444444 0 1 1 0 56.888889H28.501333a28.444444 28.444444 0 0 1-28.444444-28.444445v-97.393777c0-128.796444 77.937778-241.948444 192.682667-292.579556a202.24 202.24 0 0 1-73.386667-155.591111c0-108.430222 86.357333-197.575111 195.868444-203.434667a28.444444 28.444444 0 0 1 3.015111 56.775111c-79.587556 4.266667-142.051556 68.721778-142.051555 146.659556 0 60.643556 38.058667 114.517333 95.004444 136.533333a28.444444 28.444444 0 0 1-4.209777 54.328889C144.896 449.763556 56.888889 556.259556 56.888889 680.106667z m512-255.317334a169.699556 169.699556 0 1 0 0-339.456 169.699556 169.699556 0 0 0 0 339.456z m295.822222 406.755556c0-194.161778-133.518222-349.866667-295.822222-349.866667-162.360889 0-295.822222 155.704889-295.822222 349.866667v97.621333h591.644444v-97.621333z"
    fill="#409EFF"  ></path>
</svg>
