<svg t="1726731895101" class="icon" viewBox="0 0 1024 1024" version="1.1" xmlns="http://www.w3.org/2000/svg" p-id="52955" width="200" height="200"><path d="M878.08 202.24A42.666667 42.666667 0 0 0 830.72 170.666667L156.16 279.466667A40.106667 40.106667 0 0 0 128 298.666667h768zM463.36 522.666667a57.173333 57.173333 0 0 0-23.893333-17.066667 95.146667 95.146667 0 0 0-33.706667-6.4 72.533333 72.533333 0 0 0-34.56 8.106667 56.32 56.32 0 0 0-23.893333 23.04 90.026667 90.026667 0 0 0-8.96 27.306666 170.666667 170.666667 0 0 0-3.413334 34.133334 193.706667 193.706667 0 0 0 3.84 38.4 114.346667 114.346667 0 0 0 9.386667 29.866666 65.706667 65.706667 0 0 0 64 31.146667 65.28 65.28 0 0 0 40.106667-10.666667 68.693333 68.693333 0 0 0 25.6-42.666666 213.333333 213.333333 0 0 0 4.693333-44.8 156.16 156.16 0 0 0-5.12-42.666667 81.066667 81.066667 0 0 0-14.08-27.733333zM772.266667 522.666667a57.173333 57.173333 0 0 0-23.893334-17.066667 95.146667 95.146667 0 0 0-33.706666-6.4 72.533333 72.533333 0 0 0-34.986667 8.106667 56.746667 56.746667 0 0 0-23.893333 23.04 91.306667 91.306667 0 0 0-8.96 27.306666 170.666667 170.666667 0 0 0-3.413334 34.133334 193.706667 193.706667 0 0 0 3.84 38.4 114.773333 114.773333 0 0 0 9.386667 29.866666 65.706667 65.706667 0 0 0 64 31.146667 65.28 65.28 0 0 0 40.106667-10.666667 68.693333 68.693333 0 0 0 25.6-42.666666 216.32 216.32 0 0 0 4.693333-44.8 156.16 156.16 0 0 0-5.12-42.666667 81.493333 81.493333 0 0 0-13.653333-27.733333z" fill="#d81e06" p-id="52956"></path><path d="M896 341.333333H128a42.666667 42.666667 0 0 0-42.666667 42.666667v426.666667a42.666667 42.666667 0 0 0 42.666667 42.666666h768a42.666667 42.666667 0 0 0 42.666667-42.666666V384a42.666667 42.666667 0 0 0-42.666667-42.666667zM224.853333 737.706667H164.266667v-284.586667h60.586666zM512 708.266667a137.813333 137.813333 0 0 1-96.853333 31.146666 142.506667 142.506667 0 0 1-120.746667-46.506666 159.573333 159.573333 0 0 1-26.453333-98.133334 149.333333 149.333333 0 0 1 33.706666-107.52 142.506667 142.506667 0 0 1 104.96-35.413333 135.68 135.68 0 0 1 113.493334 42.666667 161.28 161.28 0 0 1 28.586666 102.826666 149.76 149.76 0 0 1-36.693333 110.933334z m308.906667 0a137.813333 137.813333 0 0 1-96.853334 31.146666 142.506667 142.506667 0 0 1-120.32-46.506666 160 160 0 0 1-26.453333-98.133334 149.333333 149.333333 0 0 1 33.706667-107.52 142.506667 142.506667 0 0 1 104.96-35.413333 135.68 135.68 0 0 1 113.493333 42.666667A161.706667 161.706667 0 0 1 857.6 597.333333a149.76 149.76 0 0 1-37.12 110.933334z" fill="#d81e06" p-id="52957"></path></svg>
