<svg t="1728389197587" class="icon" viewBox="0 0 1024 1024" version="1.1" xmlns="http://www.w3.org/2000/svg" p-id="7227"
     width="200" height="200">
  <path
    d="M904.079105 131.033739h-74.336421v-92.920527A35.3098 35.3098 0 0 0 793.503678 0.015796a35.3098 35.3098 0 0 0-36.239005 36.239006v92.920527H272.219524v-92.920527A35.3098 35.3098 0 0 0 236.909724 0.015796a36.239005 36.239005 0 0 0-36.239006 36.239006v92.920527h-80.840858A118.938274 118.938274 0 0 0 0.891586 249.972013v655.089713A118.938274 118.938274 0 0 0 119.82986 1022.141589h784.249245A118.938274 118.938274 0 0 0 1023.017379 905.061726v-650.443687a118.938274 118.938274 0 0 0-118.938274-123.5843z m-185.841053 488.76197L503.591635 836.300536a32.522184 32.522184 0 0 1-22.300926 9.292053 28.805363 28.805363 0 0 1-22.300926-9.292053L342.839124 718.291467a31.592979 31.592979 0 0 1 44.601853-43.672647l92.920527 92.920526L673.636199 576.123062a30.663774 30.663774 0 0 1 43.672648 43.672647z m221.150853-226.726085H87.307676V228.600292h852.081229z"
    fill="#8a8a8a" p-id="7228"></path>
</svg>
