<svg t="1728399802919" class="icon" viewBox="0 0 1024 1024" version="1.1" xmlns="http://www.w3.org/2000/svg" p-id="8234"
     width="200" height="200">
  <path
    d="M539.306667 769.706667c-3.413333 0-5.12 0-8.533334-1.706667-8.533333-5.12-11.946667-15.36-6.826666-22.186667 34.133333-64.853333 51.2-134.826667 52.906666-208.213333 0-37.546667-29.013333-66.56-63.146666-68.266667h-3.413334c-35.84 0-64.853333 29.013333-64.853333 64.853334 0 64.853333-18.773333 128-56.32 182.613333-5.12 8.533333-15.36 10.24-23.893333 5.12-8.533333-5.12-10.24-15.36-5.12-23.893333C392.533333 648.533333 409.6 592.213333 409.6 534.186667c0-56.32 47.786667-102.4 104.106667-98.986667 52.906667 1.706667 93.866667 47.786667 95.573333 102.4 0 78.506667-20.48 155.306667-56.32 223.573333-1.706667 5.12-8.533333 8.533333-13.653333 8.533334z"
   p-id="8235"></path>
  <path
    d="M448.853333 752.64c-3.413333 0-6.826667-1.706667-8.533333-3.413333-8.533333-5.12-10.24-15.36-5.12-23.893334 37.546667-58.026667 56.32-124.586667 56.32-192.853333 0-10.24 6.826667-17.066667 17.066667-17.066667s17.066667 6.826667 17.066666 17.066667c0 75.093333-22.186667 148.48-63.146666 211.626667-3.413333 6.826667-8.533333 8.533333-13.653334 8.533333z"
   p-id="8236"></path>
  <path
    d="M735.573333 657.066667h-3.413333c-8.533333-1.706667-15.36-10.24-13.653333-20.48 5.12-30.72 8.533333-63.146667 8.533333-92.16 1.706667-61.44-22.186667-121.173333-64.853333-163.84-40.96-40.96-93.866667-64.853333-151.893334-64.853334h-3.413333c-116.053333 0-209.92 90.453333-216.746667 208.213334v5.12c-1.706667 8.533333-8.533333 15.36-17.066666 15.36s-17.066667-6.826667-17.066667-17.066667v-6.826667c8.533333-133.12 117.76-237.226667 249.173333-237.226666h3.413334c66.56 0 129.706667 27.306667 175.786666 75.093333 49.493333 49.493333 75.093333 119.466667 75.093334 189.44 0 32.426667-3.413333 64.853333-10.24 97.28 1.706667 5.12-5.12 11.946667-13.653334 11.946667zM706.56 768c-1.706667 0-3.413333 0-6.826667-1.706667-8.533333-3.413333-13.653333-13.653333-10.24-22.186666l3.413334-8.533334c3.413333-8.533333 5.12-13.653333 8.533333-22.186666s11.946667-13.653333 20.48-11.946667c8.533333 3.413333 13.653333 11.946667 11.946667 20.48-3.413333 8.533333-5.12 17.066667-8.533334 23.893333l-3.413333 8.533334c-1.706667 8.533333-8.533333 13.653333-15.36 13.653333z"
   p-id="8237"></path>
  <path
    d="M634.88 737.28c-1.706667 0-3.413333 0-5.12-1.706667-8.533333-3.413333-13.653333-13.653333-10.24-22.186666 20.48-54.613333 30.72-112.64 30.72-172.373334 0-30.72-8.533333-61.44-25.6-87.04-5.12-8.533333-3.413333-18.773333 3.413333-23.893333 8.533333-5.12 18.773333-3.413333 23.893334 3.413333 22.186667 32.426667 34.133333 68.266667 32.426666 107.52-1.706667 63.146667-11.946667 126.293333-32.426666 184.32-3.413333 6.826667-10.24 11.946667-17.066667 11.946667zM315.733333 672.426667c-3.413333 0-6.826667-1.706667-8.533333-3.413334-8.533333-5.12-10.24-15.36-5.12-23.893333 20.48-34.133333 32.426667-73.386667 32.426667-112.64 0-97.28 78.506667-175.786667 174.08-175.786667h3.413333c29.013333 0 58.026667 8.533333 81.92 22.186667 8.533333 5.12 10.24 15.36 6.826667 23.893333-5.12 8.533333-15.36 10.24-23.893334 6.826667-20.48-11.946667-42.666667-17.066667-66.56-17.066667h-3.413333c-76.8 0-139.946667 63.146667-139.946667 141.653334 0 46.08-13.653333 92.16-37.546666 131.413333-1.706667 3.413333-8.533333 6.826667-13.653334 6.826667zM281.6 715.093333c-5.12 0-8.533333-1.706667-11.946667-5.12l-1.706666-1.706666s-1.706667-1.706667-1.706667-3.413334 0-1.706667-1.706667-3.413333 0-1.706667 0-3.413333 0-5.12 1.706667-6.826667c1.706667-1.706667 1.706667-3.413333 3.413333-5.12 6.826667-6.826667 17.066667-6.826667 23.893334 0 1.706667 1.706667 3.413333 3.413333 3.413333 5.12 0 1.706667 1.706667 5.12 1.706667 6.826667v3.413333c0 1.706667 0 1.706667-1.706667 3.413333 0 1.706667-1.706667 1.706667-1.706667 3.413334s-1.706667 1.706667-1.706666 1.706666c-3.413333 3.413333-6.826667 5.12-11.946667 5.12zM175.786667 423.253333c-10.24 0-17.066667-6.826667-17.066667-17.066666V175.786667c0-10.24 6.826667-17.066667 17.066667-17.066667h232.106666c10.24 0 17.066667 6.826667 17.066667 17.066667s-6.826667 17.066667-17.066667 17.066666H192.853333v215.04c0 8.533333-8.533333 15.36-17.066666 15.36zM849.92 866.986667H617.813333c-10.24 0-17.066667-6.826667-17.066666-17.066667s6.826667-17.066667 17.066666-17.066667h215.04V617.813333c0-10.24 6.826667-17.066667 17.066667-17.066666s17.066667 6.826667 17.066667 17.066666v232.106667c0 8.533333-8.533333 17.066667-17.066667 17.066667z"
   p-id="8238"></path>
  <path
    d="M406.186667 866.986667H175.786667c-10.24 0-17.066667-6.826667-17.066667-17.066667V617.813333c0-10.24 6.826667-17.066667 17.066667-17.066666s17.066667 6.826667 17.066666 17.066666v215.04h215.04c10.24 0 17.066667 6.826667 17.066667 17.066667s-8.533333 17.066667-18.773333 17.066667zM849.92 423.253333c-10.24 0-17.066667-6.826667-17.066667-17.066666V192.853333H617.813333c-10.24 0-17.066667-6.826667-17.066666-17.066666s6.826667-17.066667 17.066666-17.066667h232.106667c10.24 0 17.066667 6.826667 17.066667 17.066667v232.106666c0 8.533333-8.533333 15.36-17.066667 15.36z"
    p-id="8239"></path>
</svg>
