<svg  class="icon" viewBox="0 0 1024 1024" version="1.1" xmlns="http://www.w3.org/2000/svg"
      width="200" height="200">
  <path
    d="M768 1024v-102.4h153.6v-153.6h102.4v256h-256z m102.4-563.2h153.6v102.4h-153.6V460.8z m51.2-358.4h-153.6V0h256v256h-102.4V102.4z m-102.4 358.4h-256V204.8h256v256z m-102.4-153.6h-51.2v51.2h51.2V307.2zM204.8 563.2h256v256H204.8v-256z m102.4 153.6h51.2v-51.2H307.2v51.2zM204.8 204.8h256v256H204.8V204.8z m102.4 153.6h51.2V307.2H307.2v51.2zM102.4 256H0V0h256v102.4H102.4v153.6zM0 460.8h153.6v102.4H0V460.8z m102.4 460.8h153.6v102.4H0v-256h102.4v153.6z m563.2-256h-102.4v-102.4h102.4v102.4z m0 51.2h51.2v-153.6h102.4v256h-256v-102.4h102.4z"
    fill="#409EFF"  ></path>
</svg>
