<svg t="1726420996464" class="icon" viewBox="0 0 1024 1024" version="1.1" xmlns="http://www.w3.org/2000/svg"
     p-id="42909" width="200" height="200">
  <path
    d="M512.3 139.1c50.4 0 99.3 9.9 145.2 29.3 44.4 18.8 84.4 45.7 118.7 80s61.2 74.2 80 118.7c19.4 46 29.3 94.8 29.3 145.2s-9.9 99.3-29.3 145.2c-18.8 44.4-45.7 84.4-80 118.7s-74.2 61.2-118.7 80c-46 19.4-94.8 29.3-145.2 29.3S413 875.6 367 856.2c-44.4-18.8-84.4-45.7-118.7-80s-61.2-74.2-80-118.7c-19.4-46-29.3-94.8-29.3-145.2s9.9-99.3 29.3-145.2c18.8-44.4 45.7-84.4 80-118.7s74.2-61.2 118.7-80c46-19.5 94.9-29.3 145.3-29.3m0-74.9c-247.5 0-448.1 200.6-448.1 448.1s200.6 448.1 448.1 448.1 448.1-200.6 448.1-448.1S759.7 64.2 512.3 64.2z"
    p-id="42910" fill="#49f754"></path>
  <path d="M728.8 504L398.5 313.3c-6.2-3.6-14 0.9-14 8.1v381.3c0 7.2 7.8 11.7 14 8.1L728.8 520c6.2-3.5 6.2-12.5 0-16z"
        p-id="42911" fill="#49f754"></path>
</svg>
