<svg   class="icon" viewBox="0 0 1024 1024" version="1.1" xmlns="http://www.w3.org/2000/svg"
     width="200" height="200">
  <path
    d="M796.672 56.832H227.328c-62.464 0-113.664 51.2-113.664 113.664v682.496c0 62.464 51.2 113.664 113.664 113.664h568.832c62.464 0 113.664-51.2 113.664-113.664V170.496c0.512-62.464-50.688-113.664-113.152-113.664z m-501.76 645.12c-29.184 0-52.224-23.552-52.224-52.224s23.552-52.224 52.224-52.224 52.224 23.552 52.224 52.224-23.552 52.224-52.224 52.224z m0-295.424c-29.184 0-52.224-23.552-52.224-52.224S266.24 302.08 294.912 302.08s52.224 23.552 52.224 52.224-23.552 52.224-52.224 52.224z m482.304 192l-110.08 126.464c-7.168 8.192-19.456 8.704-27.136 1.536l-104.448-99.328c-0.512-0.512-1.024-1.024-2.048-1.024-0.512 0-1.536 0.512-2.048 1.024l-67.584 69.632c-7.168 7.68-19.456 7.68-26.624 0.512-7.168-7.168-7.68-18.944-0.512-26.112l81.92-85.504c7.168-7.68 18.944-7.68 26.624-0.512l104.96 98.816c0.512 0.512 1.024 0.512 2.048 0.512s1.536-0.512 2.048-1.024l94.72-109.568c6.656-7.68 18.432-8.704 26.624-2.048 7.168 7.168 8.192 18.944 1.536 26.624z m0-295.424l-110.08 126.464c-7.168 8.192-19.456 8.704-27.136 1.536l-104.448-99.328c-0.512-0.512-1.024-1.024-2.048-1.024-0.512 0-1.536 0.512-2.048 1.024L463.872 401.408c-7.168 7.68-19.456 7.68-26.624 0.512-7.168-7.168-7.68-18.944-0.512-26.112l81.92-85.504c7.168-7.68 18.944-7.68 26.624-0.512L650.24 388.608c0.512 0.512 1.024 0.512 2.048 0.512s1.536-0.512 2.048-1.024l94.72-109.568c6.656-7.68 18.432-8.704 26.624-2.048 7.168 6.656 8.192 18.432 1.536 26.624z"
     ></path>
</svg>
