<svg t="1728550301904" class="icon" viewBox="0 0 1024 1024" version="1.1" xmlns="http://www.w3.org/2000/svg" p-id="7181"
     width="200" height="200">
  <path
    d="M352.5 299c18.1-19.9 29.1-46.5 29.1-75.7 0-62.1-50-112.3-111.6-112.3s-111.6 50.2-111.6 112.3c0 29.2 11 55.6 29.1 75.7-42.8 26.6-71.9 73-74.7 126.4-0.2 4.6 3.4 8.4 8 8.4h44c4.2 0 7.6-3.3 7.9-7.5 3.8-50.7 46.1-90.7 97.3-90.7 51.3 0 93.5 40.1 97.3 90.7 0.3 4.2 3.7 7.5 7.9 7.5h43.9c4.6 0 8.2-3.8 8-8.4-2.6-53.4-31.8-100-74.6-126.4z m-82.4-23.6c-28.5 0-51.8-23.4-51.8-52.1s23.2-52.1 51.8-52.1 51.8 23.4 51.8 52.1-23.2 52.1-51.8 52.1zM832 765c19.6-21.6 31.6-50.4 31.6-82 0-67.2-54.1-121.6-120.8-121.6S622 615.8 622 683c0 31.6 11.9 60.2 31.6 82-46.3 28.8-83.9 79-86.9 136.9-0.2 5 9.7 9.1 14.7 9.1H629c4.6 0 8.2-3.6 8.6-8.1 4.1-54.9 49.9-98.2 105.4-98.2s101.3 43.4 105.4 98.2c0.3 4.6 4 8.1 8.6 8.1h47.5c5 0 8.9-4.1 8.7-9.1C910 844 878.3 793.7 832 765z m-89.2-25.5c-30.9 0-56.1-25.3-56.1-56.4s25.2-56.4 56.1-56.4c30.9 0 56.1 25.3 56.1 56.4s-25.2 56.4-56.1 56.4zM800 424.8h-27.2V247.3c0-17.7-14.3-32.1-32-32.1H504.4c-4.4 0-8 3.6-8 8v48.1c0 4.4 3.6 8 8 8h204.3v145.4h-29.2c-3.7 0-6.1 3.3-4.2 6l61.1 87.5c1.6 2.3 5 2.3 6.6 0l61.1-87.5c2-2.6-0.4-5.9-4.1-5.9zM210.9 593.2h27.2v177.5c0 17.7 14.3 32.1 32 32.1h236.3c4.4 0 8-3.6 8-8v-48.1c0-4.4-3.6-8-8-8H302.2V593.2h29.2c3.7 0 6.1-3.3 4.2-6l-61.1-87.5c-1.6-2.3-5-2.3-6.6 0l-61.1 87.5c-1.9 2.7 0.4 6 4.1 6z"
    p-id="7182"></path>
</svg>
