<svg t="1726397133054" class="icon" viewBox="0 0 1024 1024" version="1.1" xmlns="http://www.w3.org/2000/svg" p-id="33609" width="200" height="200"><path d="M547.754667 98.048a26.666667 26.666667 0 0 1 0 53.333333h-14.592v29.269334a371.456 371.456 0 0 1 215.466666 652.16l57.813334 57.813333a26.666667 26.666667 0 1 1-37.717334 37.717333l-63.36-63.402666a369.706667 369.706667 0 0 1-198.869333 57.642666 369.706667 369.706667 0 0 1-202.581333-60.074666l-1.962667 2.261333-65.877333 63.317333a26.666667 26.666667 0 1 1-36.949334-38.442666l61.994667-59.648a371.456 371.456 0 0 1 218.709333-649.344v-29.269334h-14.592a26.666667 26.666667 0 1 1 0-53.333333h82.517334zM507.392 345.6l-3.626667 0.256a26.666667 26.666667 0 0 0-23.082666 26.368l-0.341334 184.106667-115.029333 98.773333a26.666667 26.666667 0 1 0 34.730667 40.448l124.373333-106.666667a26.666667 26.666667 0 0 0 9.301333-20.224l0.298667-196.352a26.666667 26.666667 0 0 0-26.624-26.709333zM276.309333 160.597333a26.666667 26.666667 0 0 1-8.533333 36.736A332.373333 332.373333 0 0 0 209.237333 244.906667c-19.626667 19.626667-35.754667 39.466667-48.384 59.434666a26.666667 26.666667 0 1 1-45.098666-28.501333 399.146667 399.146667 0 0 1 55.765333-68.693333 385.109333 385.109333 0 0 1 68.053333-55.04 26.666667 26.666667 0 0 1 36.736 8.533333z m500.010667-8.405333c23.466667 14.762667 46.293333 33.365333 68.693333 55.722667a385.109333 385.109333 0 0 1 55.04 68.053333 26.666667 26.666667 0 0 1-45.226666 28.202667 332.373333 332.373333 0 0 0-47.573334-58.538667 346.24 346.24 0 0 0-59.434666-48.384 26.666667 26.666667 0 0 1 28.501333-45.056z" p-id="33610" fill="#409EFF"></path></svg>
