<svg class="icon" viewBox="0 0 1024 1024" version="1.1" xmlns="http://www.w3.org/2000/svg"
     width="200" height="200">
  <path d="M580.12354 408.726915a126.476553 120.580263 90 1 0 241.160525 0 126.476553 120.580263 90 1 0-241.160525 0Z"
        fill="#8a8a8a"></path>
  <path
    d="M704.075597 578.663282c77.254501 0.567935 157.520593 47.685046 202.346521 110.017696a252.537643 252.537643 0 0 1 5.858428 8.508791c15.798824 23.989367 27.607778 50.836829 34.983769 78.938864 3.807722 14.508435 19.249413 71.646783 7.39441 83.620489a6.132674 6.132674 0 0 1-1.028422 0.824785c-8.577353 5.571902-39.129182 0.655939-47.38931 0.655939H504.885975c-8.261151 0-38.812981 4.915963-47.38931-0.655939a6.184863 6.184863 0 0 1-1.028422-0.824785c-11.855002-11.973706 3.586688-69.112054 7.39441-83.620489 7.375991-28.102035 19.183921-54.949496 34.983769-78.938864a251.502058 251.502058 0 0 1 5.858428-8.508791c44.825928-62.333674 125.09202-109.449761 202.346521-110.017696"
    fill="#8a8a8a"></path>
  <path d="M219.775472 313.689399a152.922878 145.793504 90 1 0 291.587008 0 152.922878 145.793504 90 1 0-291.587008 0Z"
        fill="#8a8a8a"></path>
  <path
    d="M369.644805 519.15905c0.598634 0.004093 1.199315 0.037862 1.798972 0.047072 0.598634-0.00921 1.199315-0.041956 1.797949-0.047072h-3.596921z"
    fill="#8a8a8a"></path>
  <path
    d="M389.725142 793.054117c9.638521-36.721343 25.068955-71.804373 45.714158-103.151311 2.477424-3.76065 5.030573-7.470135 7.655354-11.119245 26.619264-37.015032 62.819744-69.89693 103.850229-94.857415-51.131541-38.633902-114.031103-63.794955-175.500083-64.721047-92.854804 1.397836-189.007725 58.09207-242.859213 132.976594a303.190277 303.190277 0 0 0-7.083326 10.28832c-19.102057 29.004591-33.380248 61.466933-42.298361 95.444793-4.604878 17.542538-23.274076 86.627986-8.939603 101.105722 0.356111 0.360204 0.771573 0.691755 1.242294 0.997724 10.371208 6.736425 47.311539 0.793062 57.299007 0.793062h246.741637c3.105734-26.312272 11.257391-56.628742 14.177907-67.757197z"
    fill="#8a8a8a"></path>
</svg>
