<svg t="1725967492648" class="icon" viewBox="0 0 1024 1024" version="1.1" xmlns="http://www.w3.org/2000/svg" p-id="1621"
     width="200" height="200">
  <path
    d="M800.768 493.568c0-157.696-129.024-284.672-286.72-284.672s-286.72 126.976-286.72 284.672c0 110.592 61.44 204.8 153.6 253.952v12.288c0 73.728 59.392 133.12 133.12 133.12s133.12-59.392 133.12-133.12v-12.288c90.112-47.104 153.6-143.36 153.6-253.952z m-286.72 356.352c-49.152 0-88.064-38.912-92.16-86.016 28.672 10.24 59.392 14.336 92.16 14.336s63.488-6.144 92.16-14.336c-2.048 49.152-43.008 86.016-92.16 86.016z m122.88-143.36c-12.288 6.144-24.576 12.288-36.864 16.384-26.624 10.24-55.296 14.336-83.968 14.336s-57.344-6.144-83.968-14.336c-12.288-4.096-24.576-10.24-36.864-16.384-73.728-43.008-122.88-120.832-122.88-212.992 0-135.168 110.592-243.712 245.76-243.712s245.76 110.592 245.76 243.712c-4.096 90.112-53.248 169.984-126.976 212.992zM278.528 227.328c4.096 6.144 10.24 8.192 16.384 8.192 4.096 0 8.192-2.048 12.288-4.096 10.24-6.144 12.288-18.432 4.096-28.672l-22.528-32.768c-6.144-10.24-18.432-12.288-28.672-4.096-10.24 6.144-12.288 18.432-4.096 28.672l22.528 32.768zM739.328 235.52c6.144 0 12.288-2.048 16.384-8.192L778.24 194.56c6.144-10.24 4.096-22.528-4.096-28.672s-22.528-4.096-28.672 4.096L722.944 204.8c-6.144 10.24-4.096 22.528 4.096 28.672 4.096 2.048 8.192 2.048 12.288 2.048z"
    fill="#f4ea2a" p-id="1622"></path>
  <path
    d="M577.536 479.232h-92.16l47.104-102.4c4.096-10.24 0-22.528-10.24-26.624-10.24-4.096-22.528 0-26.624 10.24l-61.44 131.072c-2.048 6.144-2.048 14.336 2.048 20.48s10.24 10.24 16.384 10.24h90.112l-47.104 88.064c-6.144 10.24-2.048 22.528 8.192 28.672 4.096 2.048 6.144 2.048 10.24 2.048 8.192 0 14.336-4.096 18.432-10.24l65.536-116.736c4.096-6.144 4.096-14.336 0-20.48-6.144-10.24-14.336-14.336-20.48-14.336zM518.144 165.888c12.288 0 20.48-8.192 20.48-20.48v-40.96c0-12.288-8.192-20.48-20.48-20.48s-20.48 8.192-20.48 20.48V143.36c0 12.288 8.192 22.528 20.48 22.528z"
    fill="#f4ea2a" p-id="1623"></path>
</svg>
