<?xml version="1.0" standalone="no"?><!DOCTYPE svg PUBLIC "-//W3C//DTD SVG 1.1//EN" "http://www.w3.org/Graphics/SVG/1.1/DTD/svg11.dtd"><svg t="1723779849843" class="icon" viewBox="0 0 1024 1024" version="1.1" xmlns="http://www.w3.org/2000/svg" p-id="4350" xmlns:xlink="http://www.w3.org/1999/xlink" width="200" height="200"><path d="M440.525 258.867l0.476 0.223 234.53 111.976c21.515 10.272 24.587 39.54 5.915 54.093l-0.573 0.437-197.948 147.61 196.418 129.347c15.251 10.043 18.992 30.758 8.324 45.487l-0.328 0.444-149.111 198.722c-10.607 14.136-30.666 16.997-44.802 6.39-13.994-10.501-16.938-30.265-6.704-44.376l0.314-0.426 128.689-171.506L409.614 601.56c-18.35-12.084-19.303-38.575-2.058-51.977l0.528-0.402L600.118 405.98l-174.841-83.478-158.271 54.822c-16.533 5.727-34.563-2.888-40.534-19.265l-0.177-0.498c-5.727-16.533 2.888-34.563 19.265-40.534l0.498-0.177 170.682-59.12a32 32 0 0 1 23.785 1.137zM379.29 636.84c13.937 10.577 16.774 30.357 6.462 44.412l-0.316 0.424-63.335 83.456a32 32 0 0 1-9.312 8.264l-0.52 0.298L101.66 891.87c-15.413 8.648-34.918 3.164-43.566-12.249-8.562-15.258-3.273-34.528 11.789-43.303l0.46-0.262 204.804-114.919 59.31-78.15c10.683-14.08 30.757-16.83 44.835-6.147z m583.026-296.806c11.983 12.75 11.488 32.725-1.018 44.868l-0.383 0.366-127.925 120.24a32 32 0 0 1-36.803 5.01l-0.406-0.217-57.192-31.114c-15.524-8.446-21.263-27.877-12.817-43.402 8.361-15.37 27.49-21.147 42.935-13.066l0.467 0.249 36.853 20.049 111.056-104.383c12.877-12.104 33.129-11.477 45.233 1.4zM768.378 64c76.568 0 138.635 62.088 138.635 138.672s-62.067 138.672-138.635 138.672c-76.568 0-138.634-62.088-138.634-138.672S691.81 64 768.378 64z m0 64c-41.217 0-74.634 33.43-74.634 74.672s33.418 74.672 74.634 74.672c41.217 0 74.635-33.43 74.635-74.672S809.595 128 768.378 128z" p-id="4351"></path></svg>