<?xml version="1.0" standalone="no"?><!DOCTYPE svg PUBLIC "-//W3C//DTD SVG 1.1//EN" "http://www.w3.org/Graphics/SVG/1.1/DTD/svg11.dtd"><svg t="1724647175505" class="icon" viewBox="0 0 1024 1024" version="1.1" xmlns="http://www.w3.org/2000/svg" p-id="10833" xmlns:xlink="http://www.w3.org/1999/xlink" width="200" height="200"><path d="M0 170.24A170.197333 170.197333 0 0 1 170.24 0h683.52A170.197333 170.197333 0 0 1 1024 170.24v683.52A170.197333 170.197333 0 0 1 853.76 1024H170.24A170.197333 170.197333 0 0 1 0 853.76V170.24z m454.826667 316.16h198.826666c4.266667 43.52 10.24 82.773333 17.92 117.76 18.773333 91.306667 43.52 160.426667 74.24 207.36 29.866667 45.226667 58.026667 68.266667 84.48 68.266667 30.72 0 54.613333-62.293333 70.826667-185.173334l-51.2-28.16c-8.533333 93.866667-18.773333 140.8-29.866667 141.653334-11.093333 0-25.6-17.92-44.373333-53.76-19.626667-38.4-36.693333-95.573333-50.346667-171.52-5.12-27.306667-10.24-59.733333-13.653333-96.426667h177.493333v-58.88h-182.613333c-3.413333-58.88-5.973333-128-6.826667-208.213333 58.026667-13.653333 107.52-27.306667 150.186667-41.813334L815.786667 128c-99.84 34.133333-239.786667 64.853333-419.84 92.16v562.346667c0 16.213333-9.386667 27.306667-27.306667 33.28l16.213333 52.906666c59.733333-19.626667 112.64-38.4 157.013334-56.32l-10.24-53.76c-24.746667 11.946667-50.346667 23.893333-76.8 34.133334V486.4z m140.8 219.306667l-42.666667 30.72c43.52 55.466667 79.36 107.52 107.52 156.16l46.933333-31.573334c-26.453333-45.226667-64-97.28-111.786666-155.306666zM313.173333 112.64c-40.96 131.413333-107.52 248.32-198.826666 349.866667l19.626666 64.853333c34.133333-35.84 64.853333-72.533333 93.866667-111.786667v482.133334h59.733333V322.56c32.426667-58.026667 59.733333-119.466667 81.066667-184.32l-55.466667-25.6z m327.68 119.466667c0 71.68 2.56 137.386667 7.68 195.413333h-193.706666V266.24c67.413333-11.093333 129.706667-22.186667 186.026666-34.133333z" fill="#3D3D3D" p-id="10834"></path></svg>