<?xml version="1.0" standalone="no"?><!DOCTYPE svg PUBLIC "-//W3C//DTD SVG 1.1//EN" "http://www.w3.org/Graphics/SVG/1.1/DTD/svg11.dtd"><svg t="1723780100541" class="icon" viewBox="0 0 1024 1024" version="1.1" xmlns="http://www.w3.org/2000/svg" p-id="7357" xmlns:xlink="http://www.w3.org/1999/xlink" width="200" height="200"><path d="M397.941843 252.845737c74.692952 0 135.759487-56.524396 136.768852-126.67521 0-69.646131-61.066535-126.170527-136.768852-126.170527-75.197634 0-135.759487 56.524396-135.759487 126.170527s60.561853 126.675209 135.759487 126.67521zM325.26762 127.179892c0.504682-36.841794 33.309019-67.122721 72.674223-67.122721 40.374569 0 73.178906 29.776244 73.178906 67.122721 0 36.337112-32.804337 66.618038-73.178906 67.12272-40.374569 0-72.674224-30.280927-72.674223-67.12272zM981.859044 29.271562c-0.504682-16.149828-14.635781-29.271562-31.290291-29.271562h-104.469197c-17.159192 0-30.785609 12.617053-31.794972 29.776244 0 16.149828 14.131099 29.271562 31.794972 29.271563h73.178906v181.685559h-46.430754c-17.663874 0-31.794973 13.121735-31.794973 29.271563 0 16.149828 14.131099 29.776244 31.794973 29.776244h46.430754v181.180877h-46.430754c-17.663874 0-31.794973 13.121735-31.794973 29.776245 0 16.149828 14.131099 29.776244 31.794973 29.776244h46.430754v183.704288h-46.430754c-16.65451 0-30.785609 12.617053-31.290291 28.76688v1.009364c0 16.65451 13.626417 29.271562 31.794973 29.271563h46.430754v181.180877h-73.178905c-17.159192 0-30.785609 12.617053-31.794973 29.271562 0 16.149828 14.131099 29.776244 31.794973 29.776245H951.073435c16.65451 0 30.785609-12.617053 31.794973-29.271562l-1.009364-964.952194zM588.206999 322.491868c-35.327748-36.337112-86.300641-57.029078-139.796945-57.029078h-100.936422C294.986693 265.46279 244.0138 286.154756 208.18137 322.491868l-163.012321 166.545096c-5.551503 5.551503-8.579596 13.121735-8.579596 20.691967 0 7.570232 3.532775 14.635781 9.084278 20.691966l55.01035 50.972893c6.560867 6.056185 15.140463 9.084278 23.215377 8.074914 8.579596 0 16.65451-4.037457 22.206013-9.58896L248.555939 472.887137v521.336619c0 16.149828 14.131099 29.776244 31.794973 29.776244h79.235091c17.159192 0 31.794973-13.626417 31.794973-29.776244v-307.856087h15.140463v307.856087c0 16.149828 14.131099 29.776244 31.794973 29.776244h79.235091c17.159192 0 31.794973-13.626417 31.794973-29.776244V472.887137l100.936422 106.992607c5.551503 6.056185 13.626417 10.093642 22.206013 10.093642 7.570232 0.504682 16.149828-2.523411 23.215377-8.074914l55.515032-51.477575c6.056185-5.551503 9.58896-13.121735 9.58896-21.196649 0-7.570232-3.028093-15.140463-8.579596-20.187284l-164.021685-166.545096zM484.242484 395.670774v569.281419h-15.140463v-307.856087c0-16.65451-13.626417-29.271562-31.794973-29.271562H359.081321c-17.159192 0-30.785609 12.617053-31.794973 29.271562v307.856087h-15.140463V395.670774c0-12.617053-8.579596-23.720059-21.196649-28.262198-12.112371-4.037457-25.234105-1.009364-34.318383 8.074913l-133.740759 141.815673-10.093643-9.084278 142.320355-144.843765c23.215377-24.224741 57.029078-38.35584 92.861508-38.355841h100.936422c34.823066 0 69.646131 14.131099 92.861508 38.355841l141.310991 144.843765-10.093642 9.084278-134.750123-142.320355c-9.084278-9.084278-22.206013-11.607689-34.318384-7.570231-11.103006 4.542139-19.17792 14.635781-19.682602 28.262198z" p-id="7358"></path></svg>