<?xml version="1.0" standalone="no"?><!DOCTYPE svg PUBLIC "-//W3C//DTD SVG 1.1//EN" "http://www.w3.org/Graphics/SVG/1.1/DTD/svg11.dtd"><svg t="1723779931800" class="icon" viewBox="0 0 1024 1024" version="1.1" xmlns="http://www.w3.org/2000/svg" p-id="5405" xmlns:xlink="http://www.w3.org/1999/xlink" width="200" height="200"><path d="M504.8 125c36.8 0 66.7 29.8 66.7 66.7s-29.8 66.7-66.7 66.7-66.7-29.8-66.7-66.7S468 125 504.8 125z m300 233.3h-200v433.3h-66.7v-200h-66.7v200h-66.7V358.3h-200v-66.7h600v66.7z" p-id="5406"></path><path d="M501.9 907.8c-164.2 0-328.5-41.1-328.5-123.2 0-67.5 108.5-96.8 173-108.5 14.7-2.9 26.4 5.9 29.3 20.5s-5.9 26.4-20.5 29.3c-99.7 17.6-132 49.9-132 61.6 0 26.4 99.7 73.3 281.5 73.3s281.5-49.9 281.5-73.3c0-11.7-32.3-44-134.9-61.6-14.7-2.9-23.5-14.7-20.5-29.3 2.9-14.7 14.7-23.5 29.3-20.5 64.5 11.7 176 41.1 176 111.4-2.8 79.2-170 120.3-334.2 120.3z" p-id="5407"></path></svg>