<?xml version="1.0" standalone="no"?><!DOCTYPE svg PUBLIC "-//W3C//DTD SVG 1.1//EN" "http://www.w3.org/Graphics/SVG/1.1/DTD/svg11.dtd"><svg t="1724647457741" class="icon" viewBox="0 0 1024 1024" version="1.1" xmlns="http://www.w3.org/2000/svg" p-id="17069" xmlns:xlink="http://www.w3.org/1999/xlink" width="200" height="200"><path d="M589.309508 806.620576h-154.587467A107.916774 107.916774 0 0 1 326.93146 698.829996V324.055292a107.916774 107.916774 0 0 1 107.790581-107.790581h154.587467a107.916774 107.916774 0 0 1 107.79058 107.790581v374.774704a107.916774 107.916774 0 0 1-107.79058 107.79058z m-154.587467-553.549325a71.06817 71.06817 0 0 0-70.984041 70.984041v374.774704a71.06817 71.06817 0 0 0 70.984041 70.984041h154.587467a71.06817 71.06817 0 0 0 70.984041-70.984041V324.055292a71.06817 71.06817 0 0 0-70.984041-70.984041z" p-id="17070"></path><path d="M573.787664 1024H400.723314l-40.581839-258.066424 36.364861-5.720788 35.691828 226.980672h141.5895v36.80654z" p-id="17071"></path><path d="M622.898104 1024h-75.327212v-36.80654h43.852363L627.125598 760.212788l36.354345 5.720788-40.581839 258.066424zM396.506336 263.776696l-36.364861-5.720788L400.723314 0h173.06435v36.80654H432.198164L396.506336 263.776696z" p-id="17072"></path><path d="M627.125598 263.776696L591.423255 36.80654h-43.852363V0h75.327212l40.581839 258.055908-36.354345 5.720788zM577.100253 486.940005a18.40327 18.40327 0 0 1-16.131781-9.538152l-13.723581-24.954834-18.571529 26.626902a18.40327 18.40327 0 0 1-30.770267-0.883357l-4.290591-6.993242h-6.940661a18.40327 18.40327 0 0 1-9.695895-2.755233l-3.848912 8.044858a18.40327 18.40327 0 0 1-16.594491 10.453058H395.181301a18.40327 18.40327 0 1 1 0-36.80654h49.762442l10.063959-21.032309a18.40327 18.40327 0 0 1 29.897427-4.78485l9.632797 10.06396h9.369893a18.392754 18.392754 0 0 1 9.306797 2.523877l20.811469-29.83433a18.40327 18.40327 0 0 1 31.222462 1.661553l17.824881 32.421303a18.40327 18.40327 0 0 1 10.190154-3.081233h43.053135a18.40327 18.40327 0 0 1 0 36.80654H599.362951l-11.252285 8.412923a18.40327 18.40327 0 0 1-11.010413 3.649106zM655.960893 631.863126H363.559225a18.40327 18.40327 0 1 1 0-36.80654h292.401668a18.40327 18.40327 0 0 1 0 36.80654z" p-id="17073"></path></svg>