<?xml version="1.0" standalone="no"?><!DOCTYPE svg PUBLIC "-//W3C//DTD SVG 1.1//EN" "http://www.w3.org/Graphics/SVG/1.1/DTD/svg11.dtd"><svg t="1731295711279" class="icon" viewBox="0 0 1489 1024" version="1.1" xmlns="http://www.w3.org/2000/svg" p-id="13238" xmlns:xlink="http://www.w3.org/1999/xlink" width="290.8203125" height="200"><path d="M1442.909091 465.454545L996.072727 37.236364c-27.927273-27.927273-74.472727-27.927273-102.4 0-27.927273 27.927273-27.927273 74.472727 0 102.4l325.818182 307.2L93.090909 465.454545c-37.236364 0-74.472727 27.927273-74.472727 65.163637 0 37.236364 27.927273 65.163636 74.472727 65.163636l1145.018182-9.309091-251.345455 297.890909c-27.927273 27.927273-18.618182 74.472727 9.309091 102.4 9.309091 9.309091 27.927273 18.618182 46.545455 18.618182s37.236364-9.309091 55.854545-27.927273l353.745455-409.6c18.618182-27.927273 18.618182-74.472727-9.309091-102.4z" fill="#2c2c2c" p-id="13239"></path></svg>